<?xml version="1.0" encoding="UTF-8" standalone="no"?>
<!DOCTYPE svg PUBLIC "-//W3C//DTD SVG 1.1//EN"
 "http://www.w3.org/Graphics/SVG/1.1/DTD/svg11.dtd">
<!-- Generated by graphviz version 5.0.1 (0)
 -->
<!-- Pages: 1 -->
<svg width="1879pt" height="1704pt"
 viewBox="0.00 0.00 1879.49 1703.76" xmlns="http://www.w3.org/2000/svg" xmlns:xlink="http://www.w3.org/1999/xlink">
<g id="graph0" class="graph" transform="scale(1 1) rotate(0) translate(28.8 1674.96)">
<polygon fill="white" stroke="none" points="-28.8,28.8 -28.8,-1674.96 1850.69,-1674.96 1850.69,28.8 -28.8,28.8"/>
<text text-anchor="middle" x="910.94" y="-1613.36" font-family="Helvetica,sans-Serif" font-size="36.00">web_framework_lib</text>
<!-- web_framework_lib -->
<g id="node1" class="node">
<title>web_framework_lib</title>
<polygon fill="#5397c8" stroke="black" points="512.22,-995.74 512.22,-1033.74 631.22,-1033.74 631.22,-995.74 512.22,-995.74"/>
<text text-anchor="middle" x="571.72" y="-1021.74" font-family="monospace" font-size="10.00">crate</text>
<polyline fill="none" stroke="black" points="512.22,-1014.74 631.22,-1014.74"/>
<text text-anchor="middle" x="571.72" y="-1002.74" font-family="monospace" font-size="10.00">web_framework_lib</text>
</g>
<!-- web_framework_lib::web -->
<g id="node2" class="node">
<title>web_framework_lib::web</title>
<polygon fill="#81c169" stroke="black" points="717.54,-1051.17 717.54,-1089.17 776.54,-1089.17 776.54,-1051.17 717.54,-1051.17"/>
<text text-anchor="middle" x="747.04" y="-1077.17" font-family="monospace" font-size="10.00">pub mod</text>
<polyline fill="none" stroke="black" points="717.54,-1070.17 776.54,-1070.17"/>
<text text-anchor="middle" x="747.04" y="-1058.17" font-family="monospace" font-size="10.00">web</text>
</g>
<!-- web_framework_lib&#45;&gt;web_framework_lib::web -->
<g id="edge1" class="edge">
<title>web_framework_lib&#45;&gt;web_framework_lib::web</title>
<path fill="none" stroke="#000000" d="M631.57,-1033.66C656.69,-1041.6 685.2,-1050.62 707.61,-1057.7"/>
<polygon fill="#000000" stroke="#000000" points="706.86,-1061.13 717.45,-1060.81 708.97,-1054.46 706.86,-1061.13"/>
<text text-anchor="middle" x="657.09" y="-1048.68" font-family="monospace" font-size="10.00">owns</text>
</g>
<!-- web_framework_lib::web::models -->
<g id="node3" class="node">
<title>web_framework_lib::web::models</title>
<polygon fill="#81c169" stroke="black" points="679.64,-808.05 679.64,-846.05 762.64,-846.05 762.64,-808.05 679.64,-808.05"/>
<text text-anchor="middle" x="721.14" y="-834.05" font-family="monospace" font-size="10.00">pub mod</text>
<polyline fill="none" stroke="black" points="679.64,-827.05 762.64,-827.05"/>
<text text-anchor="middle" x="721.14" y="-815.05" font-family="monospace" font-size="10.00">web::models</text>
</g>
<!-- web_framework_lib::web&#45;&gt;web_framework_lib::web::models -->
<g id="edge2" class="edge">
<title>web_framework_lib::web&#45;&gt;web_framework_lib::web::models</title>
<path fill="none" stroke="#000000" d="M745.01,-1051.09C740.51,-1008.86 729.68,-907.2 724.29,-856.64"/>
<polygon fill="#000000" stroke="#000000" points="727.74,-855.95 723.2,-846.38 720.78,-856.69 727.74,-855.95"/>
<text text-anchor="middle" x="722.15" y="-956.86" font-family="monospace" font-size="10.00">owns</text>
</g>
<!-- web_framework_lib::web::request_handling -->
<g id="node10" class="node">
<title>web_framework_lib::web::request_handling</title>
<polygon fill="#81c169" stroke="black" points="923.04,-1108.71 923.04,-1146.71 1066.04,-1146.71 1066.04,-1108.71 923.04,-1108.71"/>
<text text-anchor="middle" x="994.54" y="-1134.71" font-family="monospace" font-size="10.00">pub mod</text>
<polyline fill="none" stroke="black" points="923.04,-1127.71 1066.04,-1127.71"/>
<text text-anchor="middle" x="994.54" y="-1115.71" font-family="monospace" font-size="10.00">web::request_handling</text>
</g>
<!-- web_framework_lib::web&#45;&gt;web_framework_lib::web::request_handling -->
<g id="edge9" class="edge">
<title>web_framework_lib::web&#45;&gt;web_framework_lib::web::request_handling</title>
<path fill="none" stroke="#000000" d="M776.9,-1077.11C810.45,-1084.91 866.33,-1097.9 913.07,-1108.77"/>
<polygon fill="#000000" stroke="#000000" points="912.36,-1112.2 922.89,-1111.05 913.95,-1105.38 912.36,-1112.2"/>
<text text-anchor="middle" x="832.48" y="-1095.94" font-family="monospace" font-size="10.00">owns</text>
</g>
<!-- web_framework_lib::web::util -->
<g id="node16" class="node">
<title>web_framework_lib::web::util</title>
<polygon fill="#81c169" stroke="black" points="521.86,-1247.5 521.86,-1285.5 592.86,-1285.5 592.86,-1247.5 521.86,-1247.5"/>
<text text-anchor="middle" x="557.36" y="-1273.5" font-family="monospace" font-size="10.00">pub mod</text>
<polyline fill="none" stroke="black" points="521.86,-1266.5 592.86,-1266.5"/>
<text text-anchor="middle" x="557.36" y="-1254.5" font-family="monospace" font-size="10.00">web::util</text>
</g>
<!-- web_framework_lib::web&#45;&gt;web_framework_lib::web::util -->
<g id="edge15" class="edge">
<title>web_framework_lib::web&#45;&gt;web_framework_lib::web::util</title>
<path fill="none" stroke="#000000" d="M728.51,-1089.35C694.51,-1124.54 622.12,-1199.48 583.27,-1239.69"/>
<polygon fill="#000000" stroke="#000000" points="580.4,-1237.62 575.97,-1247.24 585.43,-1242.48 580.4,-1237.62"/>
<text text-anchor="middle" x="643.39" y="-1167.52" font-family="monospace" font-size="10.00">owns</text>
</g>
<!-- web_framework_lib::web::server -->
<g id="node21" class="node">
<title>web_framework_lib::web::server</title>
<polygon fill="#81c169" stroke="black" points="751.83,-1212.72 751.83,-1250.72 834.83,-1250.72 834.83,-1212.72 751.83,-1212.72"/>
<text text-anchor="middle" x="793.33" y="-1238.72" font-family="monospace" font-size="10.00">pub mod</text>
<polyline fill="none" stroke="black" points="751.83,-1231.72 834.83,-1231.72"/>
<text text-anchor="middle" x="793.33" y="-1219.72" font-family="monospace" font-size="10.00">web::server</text>
</g>
<!-- web_framework_lib::web&#45;&gt;web_framework_lib::web::server -->
<g id="edge20" class="edge">
<title>web_framework_lib::web&#45;&gt;web_framework_lib::web::server</title>
<path fill="none" stroke="#000000" d="M752.53,-1089.34C760.57,-1117.39 775.61,-1169.86 785.01,-1202.67"/>
<polygon fill="#000000" stroke="#000000" points="781.73,-1203.93 787.85,-1212.58 788.46,-1202 781.73,-1203.93"/>
<text text-anchor="middle" x="756.27" y="-1149" font-family="monospace" font-size="10.00">owns</text>
</g>
<!-- web_framework_lib::web::models::transaction -->
<g id="node4" class="node">
<title>web_framework_lib::web::models::transaction</title>
<polygon fill="#81c169" stroke="black" points="556.39,-590.15 556.39,-628.15 717.39,-628.15 717.39,-590.15 556.39,-590.15"/>
<text text-anchor="middle" x="636.89" y="-616.15" font-family="monospace" font-size="10.00">pub mod</text>
<polyline fill="none" stroke="black" points="556.39,-609.15 717.39,-609.15"/>
<text text-anchor="middle" x="636.89" y="-597.15" font-family="monospace" font-size="10.00">web::models::transaction</text>
</g>
<!-- web_framework_lib::web::models&#45;&gt;web_framework_lib::web::models::transaction -->
<g id="edge3" class="edge">
<title>web_framework_lib::web::models&#45;&gt;web_framework_lib::web::models::transaction</title>
<path fill="none" stroke="#000000" d="M713.66,-807.71C698.8,-769.27 665.47,-683.07 648.02,-637.94"/>
<polygon fill="#000000" stroke="#000000" points="651.22,-636.51 644.35,-628.45 644.69,-639.04 651.22,-636.51"/>
<text text-anchor="middle" x="668.34" y="-725.83" font-family="monospace" font-size="10.00">owns</text>
</g>
<!-- web_framework_lib::web::models::transaction::request -->
<g id="node5" class="node">
<title>web_framework_lib::web::models::transaction::request</title>
<polygon fill="#81c169" stroke="black" points="575.25,-363.21 575.25,-401.21 790.25,-401.21 790.25,-363.21 575.25,-363.21"/>
<text text-anchor="middle" x="682.75" y="-389.21" font-family="monospace" font-size="10.00">pub mod</text>
<polyline fill="none" stroke="black" points="575.25,-382.21 790.25,-382.21"/>
<text text-anchor="middle" x="682.75" y="-370.21" font-family="monospace" font-size="10.00">web::models::transaction::request</text>
</g>
<!-- web_framework_lib::web::models::transaction&#45;&gt;web_framework_lib::web::models::transaction::request -->
<g id="edge4" class="edge">
<title>web_framework_lib::web::models::transaction&#45;&gt;web_framework_lib::web::models::transaction::request</title>
<path fill="none" stroke="#000000" d="M640.8,-589.81C648.85,-549.94 667.34,-458.47 676.86,-411.39"/>
<polygon fill="#000000" stroke="#000000" points="680.3,-412.01 678.85,-401.51 673.44,-410.62 680.3,-412.01"/>
<text text-anchor="middle" x="646.33" y="-503.6" font-family="monospace" font-size="10.00">owns</text>
</g>
<!-- web_framework_lib::web::models::transaction::response -->
<g id="node9" class="node">
<title>web_framework_lib::web::models::transaction::response</title>
<polygon fill="#81c169" stroke="black" points="298.73,-556.55 298.73,-594.55 519.73,-594.55 519.73,-556.55 298.73,-556.55"/>
<text text-anchor="middle" x="409.23" y="-582.55" font-family="monospace" font-size="10.00">pub mod</text>
<polyline fill="none" stroke="black" points="298.73,-575.55 519.73,-575.55"/>
<text text-anchor="middle" x="409.23" y="-563.55" font-family="monospace" font-size="10.00">web::models::transaction::response</text>
</g>
<!-- web_framework_lib::web::models::transaction&#45;&gt;web_framework_lib::web::models::transaction::response -->
<g id="edge8" class="edge">
<title>web_framework_lib::web::models::transaction&#45;&gt;web_framework_lib::web::models::transaction::response</title>
<path fill="none" stroke="#000000" d="M556.3,-597.26C547.75,-596 538.93,-594.7 530.05,-593.38"/>
<polygon fill="#000000" stroke="#000000" points="530.41,-589.9 520.01,-591.9 529.39,-596.83 530.41,-589.9"/>
<text text-anchor="middle" x="530.67" y="-598.32" font-family="monospace" font-size="10.00">owns</text>
</g>
<!-- web_framework_lib::web::models::transaction::request::request_line_data -->
<g id="node6" class="node">
<title>web_framework_lib::web::models::transaction::request::request_line_data</title>
<polygon fill="#db5367" stroke="black" points="383.79,-180.96 383.79,-218.96 712.79,-218.96 712.79,-180.96 383.79,-180.96"/>
<text text-anchor="middle" x="548.29" y="-206.96" font-family="monospace" font-size="10.00">pub(self) mod</text>
<polyline fill="none" stroke="black" points="383.79,-199.96 712.79,-199.96"/>
<text text-anchor="middle" x="548.29" y="-187.96" font-family="monospace" font-size="10.00">web::models::transaction::request::request_line_data</text>
</g>
<!-- web_framework_lib::web::models::transaction::request&#45;&gt;web_framework_lib::web::models::transaction::request::request_line_data -->
<g id="edge5" class="edge">
<title>web_framework_lib::web::models::transaction::request&#45;&gt;web_framework_lib::web::models::transaction::request::request_line_data</title>
<path fill="none" stroke="#000000" d="M668.62,-363.05C644.71,-330.65 596.21,-264.91 568.64,-227.55"/>
<polygon fill="#000000" stroke="#000000" points="571.19,-225.11 562.44,-219.14 565.56,-229.27 571.19,-225.11"/>
<text text-anchor="middle" x="606.13" y="-298.3" font-family="monospace" font-size="10.00">owns</text>
</g>
<!-- web_framework_lib::web::models::transaction::request::request_headers -->
<g id="node8" class="node">
<title>web_framework_lib::web::models::transaction::request::request_headers</title>
<polygon fill="#db5367" stroke="black" points="701.72,-227.97 701.72,-265.97 1018.72,-265.97 1018.72,-227.97 701.72,-227.97"/>
<text text-anchor="middle" x="860.22" y="-253.97" font-family="monospace" font-size="10.00">pub(self) mod</text>
<polyline fill="none" stroke="black" points="701.72,-246.97 1018.72,-246.97"/>
<text text-anchor="middle" x="860.22" y="-234.97" font-family="monospace" font-size="10.00">web::models::transaction::request::request_headers</text>
</g>
<!-- web_framework_lib::web::models::transaction::request&#45;&gt;web_framework_lib::web::models::transaction::request::request_headers -->
<g id="edge7" class="edge">
<title>web_framework_lib::web::models::transaction::request&#45;&gt;web_framework_lib::web::models::transaction::request::request_headers</title>
<path fill="none" stroke="#000000" d="M707.8,-363.12C738.89,-339.43 792.03,-298.93 826.63,-272.56"/>
<polygon fill="#000000" stroke="#000000" points="829.18,-275.03 835.01,-266.18 824.93,-269.46 829.18,-275.03"/>
<text text-anchor="middle" x="754.72" y="-320.84" font-family="monospace" font-size="10.00">owns</text>
</g>
<!-- web_framework_lib::web::models::transaction::request::request_line_data::request_queries -->
<g id="node7" class="node">
<title>web_framework_lib::web::models::transaction::request::request_line_data::request_queries</title>
<polygon fill="#db5367" stroke="black" points="225.03,-0.5 225.03,-38.5 656.03,-38.5 656.03,-0.5 225.03,-0.5"/>
<text text-anchor="middle" x="440.53" y="-26.5" font-family="monospace" font-size="10.00">pub(self) mod</text>
<polyline fill="none" stroke="black" points="225.03,-19.5 656.03,-19.5"/>
<text text-anchor="middle" x="440.53" y="-7.5" font-family="monospace" font-size="10.00">web::models::transaction::request::request_line_data::request_queries</text>
</g>
<!-- web_framework_lib::web::models::transaction::request::request_line_data&#45;&gt;web_framework_lib::web::models::transaction::request::request_line_data::request_queries -->
<g id="edge6" class="edge">
<title>web_framework_lib::web::models::transaction::request::request_line_data&#45;&gt;web_framework_lib::web::models::transaction::request::request_line_data::request_queries</title>
<path fill="none" stroke="#000000" d="M536.76,-180.65C517.64,-148.63 479.3,-84.42 457.22,-47.45"/>
<polygon fill="#000000" stroke="#000000" points="460.11,-45.47 451.98,-38.67 454.1,-49.05 460.11,-45.47"/>
<text text-anchor="middle" x="484.49" y="-117.05" font-family="monospace" font-size="10.00">owns</text>
</g>
<!-- web_framework_lib::web::request_handling::chain_handler -->
<g id="node11" class="node">
<title>web_framework_lib::web::request_handling::chain_handler</title>
<polygon fill="#81c169" stroke="black" points="1106.87,-1099.06 1106.87,-1137.06 1339.87,-1137.06 1339.87,-1099.06 1106.87,-1099.06"/>
<text text-anchor="middle" x="1223.37" y="-1125.06" font-family="monospace" font-size="10.00">pub mod</text>
<polyline fill="none" stroke="black" points="1106.87,-1118.06 1339.87,-1118.06"/>
<text text-anchor="middle" x="1223.37" y="-1106.06" font-family="monospace" font-size="10.00">web::request_handling::chain_handler</text>
</g>
<!-- web_framework_lib::web::request_handling&#45;&gt;web_framework_lib::web::request_handling::chain_handler -->
<g id="edge10" class="edge">
<title>web_framework_lib::web::request_handling&#45;&gt;web_framework_lib::web::request_handling::chain_handler</title>
<path fill="none" stroke="#000000" d="M1066.32,-1124.69C1075.95,-1124.28 1086.05,-1123.85 1096.3,-1123.42"/>
<polygon fill="#000000" stroke="#000000" points="1096.73,-1126.91 1106.57,-1122.99 1096.43,-1119.91 1096.73,-1126.91"/>
<text text-anchor="middle" x="1093.81" y="-1127.05" font-family="monospace" font-size="10.00">owns</text>
</g>
<!-- web_framework_lib::web::request_handling::route_handler_container -->
<g id="node15" class="node">
<title>web_framework_lib::web::request_handling::route_handler_container</title>
<polygon fill="#81c169" stroke="black" points="906.65,-1332.81 906.65,-1370.81 1199.65,-1370.81 1199.65,-1332.81 906.65,-1332.81"/>
<text text-anchor="middle" x="1053.15" y="-1358.81" font-family="monospace" font-size="10.00">pub mod</text>
<polyline fill="none" stroke="black" points="906.65,-1351.81 1199.65,-1351.81"/>
<text text-anchor="middle" x="1053.15" y="-1339.81" font-family="monospace" font-size="10.00">web::request_handling::route_handler_container</text>
</g>
<!-- web_framework_lib::web::request_handling&#45;&gt;web_framework_lib::web::request_handling::route_handler_container -->
<g id="edge14" class="edge">
<title>web_framework_lib::web::request_handling&#45;&gt;web_framework_lib::web::request_handling::route_handler_container</title>
<path fill="none" stroke="#000000" d="M999.54,-1146.82C1009.83,-1186.18 1033.46,-1276.51 1045.61,-1323"/>
<polygon fill="#000000" stroke="#000000" points="1042.25,-1323.97 1048.17,-1332.76 1049.02,-1322.2 1042.25,-1323.97"/>
<text text-anchor="middle" x="1010.08" y="-1237.91" font-family="monospace" font-size="10.00">owns</text>
</g>
<!-- web_framework_lib::web::request_handling::chain_handler::handlers -->
<g id="node12" class="node">
<title>web_framework_lib::web::request_handling::chain_handler::handlers</title>
<polygon fill="#db5367" stroke="black" points="1293.11,-1166.18 1293.11,-1204.18 1586.11,-1204.18 1586.11,-1166.18 1293.11,-1166.18"/>
<text text-anchor="middle" x="1439.61" y="-1192.18" font-family="monospace" font-size="10.00">pub(self) mod</text>
<polyline fill="none" stroke="black" points="1293.11,-1185.18 1586.11,-1185.18"/>
<text text-anchor="middle" x="1439.61" y="-1173.18" font-family="monospace" font-size="10.00">web::request_handling::chain_handler::handlers</text>
</g>
<!-- web_framework_lib::web::request_handling::chain_handler&#45;&gt;web_framework_lib::web::request_handling::chain_handler::handlers -->
<g id="edge11" class="edge">
<title>web_framework_lib::web::request_handling::chain_handler&#45;&gt;web_framework_lib::web::request_handling::chain_handler::handlers</title>
<path fill="none" stroke="#000000" d="M1284.76,-1137.12C1310.78,-1145.2 1341.27,-1154.66 1368.29,-1163.05"/>
<polygon fill="#000000" stroke="#000000" points="1367.48,-1166.46 1378.07,-1166.08 1369.56,-1159.78 1367.48,-1166.46"/>
<text text-anchor="middle" x="1314.02" y="-1153.08" font-family="monospace" font-size="10.00">owns</text>
</g>
<!-- web_framework_lib::web::request_handling::chain_handler::handlers::handler_config -->
<g id="node13" class="node">
<title>web_framework_lib::web::request_handling::chain_handler::handlers::handler_config</title>
<polygon fill="#81c169" stroke="black" points="1432.89,-1052.58 1432.89,-1090.58 1821.89,-1090.58 1821.89,-1052.58 1432.89,-1052.58"/>
<text text-anchor="middle" x="1627.39" y="-1078.58" font-family="monospace" font-size="10.00">pub mod</text>
<polyline fill="none" stroke="black" points="1432.89,-1071.58 1821.89,-1071.58"/>
<text text-anchor="middle" x="1627.39" y="-1059.58" font-family="monospace" font-size="10.00">web::request_handling::chain_handler::handlers::handler_config</text>
</g>
<!-- web_framework_lib::web::request_handling::chain_handler::handlers&#45;&gt;web_framework_lib::web::request_handling::chain_handler::handlers::handler_config -->
<g id="edge12" class="edge">
<title>web_framework_lib::web::request_handling::chain_handler::handlers&#45;&gt;web_framework_lib::web::request_handling::chain_handler::handlers::handler_config</title>
<path fill="none" stroke="#000000" d="M1471.04,-1166.17C1502.86,-1146.92 1552.19,-1117.07 1586.92,-1096.06"/>
<polygon fill="#000000" stroke="#000000" points="1589.11,-1098.83 1595.85,-1090.66 1585.49,-1092.84 1589.11,-1098.83"/>
<text text-anchor="middle" x="1516.48" y="-1134.12" font-family="monospace" font-size="10.00">owns</text>
</g>
<!-- web_framework_lib::web::request_handling::chain_handler::handlers::static_resource_handler -->
<g id="node14" class="node">
<title>web_framework_lib::web::request_handling::chain_handler::handlers::static_resource_handler</title>
<polygon fill="#81c169" stroke="black" points="1344,-1353.55 1344,-1391.55 1787,-1391.55 1787,-1353.55 1344,-1353.55"/>
<text text-anchor="middle" x="1565.5" y="-1379.55" font-family="monospace" font-size="10.00">pub mod</text>
<polyline fill="none" stroke="black" points="1344,-1372.55 1787,-1372.55"/>
<text text-anchor="middle" x="1565.5" y="-1360.55" font-family="monospace" font-size="10.00">web::request_handling::chain_handler::handlers::static_resource_handler</text>
</g>
<!-- web_framework_lib::web::request_handling::chain_handler::handlers&#45;&gt;web_framework_lib::web::request_handling::chain_handler::handlers::static_resource_handler -->
<g id="edge13" class="edge">
<title>web_framework_lib::web::request_handling::chain_handler::handlers&#45;&gt;web_framework_lib::web::request_handling::chain_handler::handlers::static_resource_handler</title>
<path fill="none" stroke="#000000" d="M1452.61,-1204.53C1475,-1237.86 1520.92,-1306.21 1546.76,-1344.67"/>
<polygon fill="#000000" stroke="#000000" points="1544.09,-1346.96 1552.57,-1353.31 1549.9,-1343.06 1544.09,-1346.96"/>
<text text-anchor="middle" x="1487.19" y="-1277.6" font-family="monospace" font-size="10.00">owns</text>
</g>
<!-- web_framework_lib::web::util::enums -->
<g id="node17" class="node">
<title>web_framework_lib::web::util::enums</title>
<polygon fill="#81c169" stroke="black" points="285.01,-1342.86 285.01,-1380.86 398.01,-1380.86 398.01,-1342.86 285.01,-1342.86"/>
<text text-anchor="middle" x="341.51" y="-1368.86" font-family="monospace" font-size="10.00">pub mod</text>
<polyline fill="none" stroke="black" points="285.01,-1361.86 398.01,-1361.86"/>
<text text-anchor="middle" x="341.51" y="-1349.86" font-family="monospace" font-size="10.00">web::util::enums</text>
</g>
<!-- web_framework_lib::web::util&#45;&gt;web_framework_lib::web::util::enums -->
<g id="edge16" class="edge">
<title>web_framework_lib::web::util&#45;&gt;web_framework_lib::web::util::enums</title>
<path fill="none" stroke="#000000" d="M521.72,-1282.25C486.91,-1297.63 433.54,-1321.2 393.9,-1338.71"/>
<polygon fill="#000000" stroke="#000000" points="392.38,-1335.56 384.65,-1342.8 395.21,-1341.96 392.38,-1335.56"/>
<text text-anchor="middle" x="445.31" y="-1313.48" font-family="monospace" font-size="10.00">owns</text>
</g>
<!-- web_framework_lib::web::util::request_parser -->
<g id="node20" class="node">
<title>web_framework_lib::web::util::request_parser</title>
<polygon fill="#81c169" stroke="black" points="523.2,-1471.91 523.2,-1509.91 690.2,-1509.91 690.2,-1471.91 523.2,-1471.91"/>
<text text-anchor="middle" x="606.7" y="-1497.91" font-family="monospace" font-size="10.00">pub mod</text>
<polyline fill="none" stroke="black" points="523.2,-1490.91 690.2,-1490.91"/>
<text text-anchor="middle" x="606.7" y="-1478.91" font-family="monospace" font-size="10.00">web::util::request_parser</text>
</g>
<!-- web_framework_lib::web::util&#45;&gt;web_framework_lib::web::util::request_parser -->
<g id="edge19" class="edge">
<title>web_framework_lib::web::util&#45;&gt;web_framework_lib::web::util::request_parser</title>
<path fill="none" stroke="#000000" d="M561.57,-1285.64C570.23,-1325.05 590.12,-1415.5 600.35,-1462.06"/>
<polygon fill="#000000" stroke="#000000" points="596.93,-1462.81 602.5,-1471.83 603.77,-1461.31 596.93,-1462.81"/>
<text text-anchor="middle" x="568.46" y="-1376.85" font-family="monospace" font-size="10.00">owns</text>
</g>
<!-- web_framework_lib::web::util::enums::http_method_enum -->
<g id="node18" class="node">
<title>web_framework_lib::web::util::enums::http_method_enum</title>
<polygon fill="#81c169" stroke="black" points="157.22,-1559.66 157.22,-1597.66 378.22,-1597.66 378.22,-1559.66 157.22,-1559.66"/>
<text text-anchor="middle" x="267.72" y="-1585.66" font-family="monospace" font-size="10.00">pub mod</text>
<polyline fill="none" stroke="black" points="157.22,-1578.66 378.22,-1578.66"/>
<text text-anchor="middle" x="267.72" y="-1566.66" font-family="monospace" font-size="10.00">web::util::enums::http_method_enum</text>
</g>
<!-- web_framework_lib::web::util::enums&#45;&gt;web_framework_lib::web::util::enums::http_method_enum -->
<g id="edge17" class="edge">
<title>web_framework_lib::web::util::enums&#45;&gt;web_framework_lib::web::util::enums::http_method_enum</title>
<path fill="none" stroke="#000000" d="M334.96,-1381.1C321.97,-1419.27 292.88,-1504.76 277.57,-1549.73"/>
<polygon fill="#000000" stroke="#000000" points="274.16,-1548.87 274.25,-1559.47 280.79,-1551.13 274.16,-1548.87"/>
<text text-anchor="middle" x="293.77" y="-1468.42" font-family="monospace" font-size="10.00">owns</text>
</g>
<!-- web_framework_lib::web::util::enums::static_file_ext_enum -->
<g id="node19" class="node">
<title>web_framework_lib::web::util::enums::static_file_ext_enum</title>
<polygon fill="#81c169" stroke="black" points="0,-1318.94 0,-1356.94 245,-1356.94 245,-1318.94 0,-1318.94"/>
<text text-anchor="middle" x="122.5" y="-1344.94" font-family="monospace" font-size="10.00">pub mod</text>
<polyline fill="none" stroke="black" points="0,-1337.94 245,-1337.94"/>
<text text-anchor="middle" x="122.5" y="-1325.94" font-family="monospace" font-size="10.00">web::util::enums::static_file_ext_enum</text>
</g>
<!-- web_framework_lib::web::util::enums&#45;&gt;web_framework_lib::web::util::enums::static_file_ext_enum -->
<g id="edge18" class="edge">
<title>web_framework_lib::web::util::enums&#45;&gt;web_framework_lib::web::util::enums::static_file_ext_enum</title>
<path fill="none" stroke="#000000" d="M284.83,-1355.67C275.61,-1354.66 265.73,-1353.58 255.57,-1352.47"/>
<polygon fill="#000000" stroke="#000000" points="255.65,-1348.96 245.32,-1351.35 254.89,-1355.92 255.65,-1348.96"/>
<text text-anchor="middle" x="257.7" y="-1357.07" font-family="monospace" font-size="10.00">owns</text>
</g>
</g>
</svg>
